<svg xmlns="http://www.w3.org/2000/svg" version="1.1" xmlns:xlink="http://www.w3.org/1999/xlink" xmlns:svgjs="http://svgjs.dev/svgjs" width="200" height="70" viewBox="0 0 1000 234"><g transform="matrix(1,0,0,1,-0.6060433704423644,-0.5892496533403175)"><svg viewBox="0 0 396 93" data-background-color="#282634" preserveAspectRatio="xMidYMid meet" height="234" width="1000" xmlns="http://www.w3.org/2000/svg" xmlns:xlink="http://www.w3.org/1999/xlink"><g id="tight-bounds" transform="matrix(1,0,0,1,0.23999365788313298,0.234188964789098)"><svg viewBox="0 0 395.52 92.53161824455469" height="92.53161824455469" width="395.52"><g><svg viewBox="0 0 512.7363414541853 119.95429664125284" height="92.53161824455469" width="395.52"><g transform="matrix(1,0,0,1,117.2163414541854,31.044611745312185)"><svg viewBox="0 0 395.52 57.86507315062847" height="57.86507315062847" width="395.52"><g id="textblocktransform"><svg viewBox="0 0 395.52 57.86507315062847" height="57.86507315062847" width="395.52" id="textblock"><g><svg viewBox="0 0 395.52 57.86507315062847" height="57.86507315062847" width="395.52"><g transform="matrix(1,0,0,1,0,0)"><svg width="395.52" viewBox="3.3499999046325684 -34.900001525878906 242.62998962402344 35.5" height="57.86507315062847" data-palette-color="#ff4057"><path d="M3.35 0L3.35-34.3 17.3-34.3Q22.3-34.3 24.98-31.68 27.65-29.05 27.65-24.7L27.65-24.7Q27.65-21.55 26.05-19.2 24.45-16.85 21.65-15.85L21.65-15.85 28.45 0 22.9 0 16.75-14.9 8.35-14.9 8.35 0 3.35 0ZM8.35-19.4L16.95-19.4Q19.45-19.4 20.88-20.85 22.3-22.3 22.3-24.7L22.3-24.7Q22.3-27.05 20.95-28.4 19.6-29.75 17-29.75L17-29.75 8.35-29.75 8.35-19.4ZM39.85 0L39.85-13.8 28.9-34.3 34.35-34.3 42.55-18.65 42.75-18.65 50.8-34.3 55.75-34.3 44.85-13.8 44.85 0 39.85 0ZM52.7 0L63.65-34.3 69.9-34.3 80.84 0 75.5 0 73.25-7.35 59.95-7.35 57.7 0 52.7 0ZM61.3-11.9L71.84-11.9 67.55-25.95Q67.15-27.25 66.7-30L66.7-30 66.5-30Q66.05-27.15 65.65-25.95L65.65-25.95 61.3-11.9ZM84.14 0L84.14-34.3 88.54-34.3 100.59-13.6Q101.24-12.5 102.49-9.45L102.49-9.45 102.64-9.5 102.54-13.5 102.54-34.3 107.04-34.3 107.04 0 102.74 0 90.59-20.9Q89.94-22.1 88.64-25.1L88.64-25.1 88.44-25Q88.64-22.15 88.64-21L88.64-21 88.64 0 84.14 0ZM135.29 0.6Q130.19 0.6 126.94-1.98 123.69-4.55 123.69-9.8L123.69-9.8 123.74-10.85 128.94-10.85 128.89-9.85Q128.89-7 130.64-5.45 132.39-3.9 135.29-3.9L135.29-3.9Q138.49-3.9 140.16-5.28 141.84-6.65 141.84-9.1L141.84-9.1Q141.84-10.9 140.86-12.05 139.89-13.2 138.41-13.88 136.94-14.55 134.39-15.35L134.39-15.35Q131.19-16.4 129.19-17.4 127.19-18.4 125.79-20.38 124.39-22.35 124.39-25.55L124.39-25.55Q124.39-30.1 127.51-32.5 130.64-34.9 135.44-34.9L135.44-34.9Q140.24-34.9 143.29-32.45 146.34-30 146.34-25.1L146.34-25.1 146.34-24.5 141.14-24.5 141.14-25.15Q141.14-27.6 139.56-29 137.99-30.4 135.49-30.4L135.49-30.4Q132.84-30.4 131.24-29.25 129.64-28.1 129.64-25.95L129.64-25.95Q129.64-24.35 130.59-23.28 131.54-22.2 132.99-21.55 134.44-20.9 136.89-20.15L136.89-20.15Q140.14-19.1 142.16-18.1 144.19-17.1 145.64-15.15 147.09-13.2 147.09-10.05L147.09-10.05Q147.09-4.5 143.91-1.95 140.74 0.6 135.29 0.6L135.29 0.6ZM152.09 0L152.09-34.3 159.54-34.3 164.99-12.95Q165.54-10.6 166.24-5.2L166.24-5.2 166.44-5.2Q166.99-10.75 167.54-12.95L167.54-12.95 173.04-34.3 180.34-34.3 180.34 0 175.44 0 175.44-23.95Q175.44-25.2 175.79-29.3L175.79-29.3 175.59-29.3 175.24-27.8Q174.69-25 174.39-23.95L174.39-23.95 168.19 0 163.74 0 157.54-24Q157.04-26 156.44-29.3L156.44-29.3 156.24-29.3Q156.54-25 156.54-23.95L156.54-23.95 156.54 0 152.09 0ZM186.48 0L186.48-34.3 191.48-34.3 191.48 0 186.48 0ZM204.68 0L204.68-29.75 195.58-29.75 195.58-34.3 218.78-34.3 218.78-29.75 209.73-29.75 209.73 0 204.68 0ZM223.08 0L223.08-34.3 228.08-34.3 228.08-19.8 240.98-19.8 240.98-34.3 245.98-34.3 245.98 0 240.98 0 240.98-15.3 228.08-15.3 228.08 0 223.08 0Z" opacity="1" transform="matrix(1,0,0,1,0,0)" fill="#000000" class="wordmark-text-0" data-fill-palette-color="primary" id="text-0"></path></svg></g></svg></g></svg></g></svg></g><g><svg viewBox="0 0 103.55578644507763 119.95429664125284" height="119.95429664125284" width="103.55578644507763"><g><svg xmlns="http://www.w3.org/2000/svg" xmlns:xlink="http://www.w3.org/1999/xlink" version="1.1" x="0" y="0" viewBox="9.63800048828125 3.246999979019165 80.7239990234375 93.50699615478516" enable-background="new 0 0 100 100" xml:space="preserve" height="119.95429664125284" width="103.55578644507763" class="icon-icon-0" data-fill-palette-color="accent" id="icon-0"><g fill="#dcdcdc" data-fill-palette-color="accent"><g fill="#dcdcdc" data-fill-palette-color="accent"><polygon points="36.703,11.011 9.638,26.636 9.638,38.757 36.703,23.131 63.767,38.757 63.767,26.636   " fill="#000000" data-fill-palette-color="accent"></polygon></g><g fill="#dcdcdc" data-fill-palette-color="accent"><polygon points="63.298,89.092 36.233,73.467 36.233,61.348 63.298,76.973 90.362,61.348 90.362,73.467   " fill="#000000" data-fill-palette-color="accent"></polygon></g><g fill="#dcdcdc" data-fill-palette-color="accent"><polygon points="9.638,42.012 36.703,26.386 47.198,32.446 20.134,48.072 20.134,79.324 9.638,73.264   " fill="#000000" data-fill-palette-color="accent"></polygon></g><g fill="#dcdcdc" data-fill-palette-color="accent"><polygon points="77.083,18.872 50.018,3.247 39.522,9.307 66.586,24.932 66.586,56.184 77.083,50.124   " fill="#000000" data-fill-palette-color="accent"></polygon></g><g fill="#dcdcdc" data-fill-palette-color="accent"><polygon points="23.01,81.127 23.011,49.876 33.507,43.816 33.507,75.068 60.571,90.693 50.075,96.754   " fill="#000000" data-fill-palette-color="accent"></polygon></g><g fill="#dcdcdc" data-fill-palette-color="accent"><polygon points="90.362,58.092 90.362,26.84 79.866,20.78 79.866,52.031 52.802,67.658 63.298,73.719   " fill="#000000" data-fill-palette-color="accent"></polygon></g></g></svg></g></svg></g></svg></g><defs></defs></svg><rect width="395.52" height="92.53161824455469" fill="none" stroke="none" visibility="hidden"></rect></g></svg></g></svg>